<?xml version="1.0" ?><svg xmlns="http://www.w3.org/2000/svg" width="24" height="24" viewBox="0 0 24 24" fill="none"><path fill-rule="evenodd" clip-rule="evenodd" d="M21 12C21 16.9706 16.9706 21 12 21C7.02944 21 3 16.9706 3 12C3 7.02944 7.02944 3 12 3C16.9706 3 21 7.02944 21 12ZM12.75 6.90466C12.75 6.49045 12.4142 6.15466 12 6.15466C11.5858 6.15466 11.25 6.49045 11.25 6.90466V12.3284V12.7219L11.5737 12.9455L15.239 15.4773C15.5798 15.7127 16.0469 15.6272 16.2824 15.2864C16.5178 14.9456 16.4323 14.4785 16.0915 14.2431L12.75 11.9349V6.90466Z" fill="black"/></svg>